<?xml version="1.0"?>
<svg width="410" height="436" viewBox="0 0 410 436" fill="none" xmlns="http://www.w3.org/2000/svg">
<path d="M141.25 1.21901C138.339 1.16342 135.153 1.46992 132.906 2.09401C130.841 2.66769 128.24 4.38361 126.062 6.56281C123.884 8.74201 122.113 11.3805 121.469 13.5316C120.857 15.5735 120.601 16.3422 120.969 18.5941C121.336 20.846 122.409 24.5376 124.562 31.8441C125.617 35.4237 127.242 41.0299 128.156 44.3441C129.045 47.5654 130.687 51.8507 131.656 53.5316C132.825 55.5571 134.092 58.8979 134.594 61.3128C143.354 103.443 145.324 114.748 146.625 130.532C147.231 137.89 148.12 145.598 149.031 151.751C149.487 154.827 149.95 157.534 150.375 159.595C150.799 161.656 151.255 163.16 151.437 163.501C152.864 166.167 152.831 169.597 152.062 172.188C151.678 173.484 151.125 174.601 150.218 175.313C149.765 175.669 149.184 175.891 148.562 175.876C147.94 175.861 147.359 175.616 146.843 175.188C146.218 174.669 145.739 173.891 145.218 172.938C144.698 171.986 144.201 170.888 143.812 169.782C143.125 167.83 140.447 161.769 137.968 156.563C135.481 151.337 132.602 145.266 131.562 143.063C128.911 137.448 125.496 132.1 122.718 129.063C121.238 127.445 119.061 124.396 117.187 121.563C116.25 120.147 115.407 118.782 114.781 117.688C114.468 117.141 114.19 116.657 114 116.251C113.819 115.864 113.671 115.647 113.656 115.126C113.625 115.037 113.547 114.899 113.469 114.719C113.311 114.361 113.077 113.87 112.781 113.282C112.189 112.105 111.366 110.566 110.469 108.969C108.628 105.695 106.324 100.812 105.25 97.9694C103.238 92.6468 98.3586 82.3534 93.6247 73.0634C91.2577 68.4185 88.9173 64.0098 86.9997 60.5944C86.0409 58.8868 85.1991 57.4285 84.4997 56.3132C83.8003 55.1978 83.1958 54.388 82.9685 54.157C78.1924 49.3037 71.6545 49.6562 66.3435 53.0632C61.0324 56.4703 57.1794 62.958 58.1873 70.3442C59.247 78.1104 63.8533 90.1842 72.4683 107.406C80.6441 123.75 89.4313 144.041 92.5303 153.812C93.4707 156.777 95.1865 161.094 96.2491 163.187C97.4277 165.509 99.5121 170.787 100.999 175.125C102.441 179.331 105.865 187.225 108.53 192.5C111.662 198.697 113.495 202.956 114.343 206.562C115.191 210.169 114.999 213.112 114.03 216.375C113.209 219.141 111.947 221.739 110.593 223.687C109.916 224.661 109.227 225.455 108.499 226.062C107.771 226.669 106.992 227.125 106.093 227.125C105.592 227.125 105.43 226.977 105.155 226.843C104.88 226.71 104.578 226.532 104.218 226.312C103.498 225.872 102.598 225.258 101.53 224.5C99.3959 222.983 96.6544 220.917 93.8115 218.625C88.1809 214.085 80.3085 208.252 76.4675 205.719C64.5125 197.833 58.1155 192.354 50.6865 183.813C46.4809 178.977 41.375 173.947 36.5925 169.782C31.8102 165.616 27.301 162.31 24.4675 160.938C15.9537 156.816 6.0355 160.012 2.4365 167.938C0.382404 172.461 0.1698 176.484 2.4053 181.844C4.6408 187.204 9.429 193.834 17.3743 203.063C19.1243 205.096 25.4125 211.184 32.6243 217.875C39.8361 224.567 48.0523 231.958 53.8123 236.875C57.6808 240.177 63.8573 245.696 67.5933 249.156C71.2746 252.565 76.2003 256.53 78.2813 257.843C80.686 259.361 83.2558 261.862 84.3438 263.875C85.164 265.392 87.7441 268.957 89.9063 271.531C92.1569 274.21 95.6423 278.988 97.7501 282.25C99.8114 285.439 102.88 289.874 104.5 292.031C106.26 294.374 109.181 299.5 111.156 303.687C118.672 319.616 123.215 328.035 125.968 331.343C127.702 333.426 131.026 337.956 133.437 341.562C139.276 350.293 147.052 358.566 165.749 375.781C168.301 378.13 170.448 380.325 171.999 382.093C172.775 382.978 173.394 383.771 173.843 384.437C174.292 385.104 174.655 385.542 174.655 386.343C174.655 387.113 175.099 388.921 175.593 389.843C176.022 390.645 176.152 391.613 176.187 392.875C176.221 394.136 176.127 395.693 175.905 397.5C175.462 401.112 174.529 405.801 173.124 411.375C172.179 415.125 171.468 419.215 171.093 422.719C170.718 426.222 170.722 429.207 171.03 430.437C171.216 431.178 171.47 431.632 171.655 431.812C171.841 431.993 171.905 432.023 172.187 431.969C172.427 431.922 172.363 432.003 172.624 431.531C172.885 431.059 173.239 430.02 173.687 428.156C174.583 424.429 175.895 417.42 178.218 404.437C179.116 399.416 179.594 392.799 179.343 389.437C179.076 385.854 178.613 383.725 176.999 381.25C175.386 378.774 172.54 375.942 167.468 371.375C154.238 359.462 141.72 346.172 135.78 337.687C132.508 333.012 128.555 327.411 126.999 325.218C123.516 320.311 121.128 315.816 115.78 304.124C113.844 299.891 111.343 295.201 109.092 291.436C107.967 289.553 106.883 287.919 105.998 286.686C105.114 285.452 104.288 284.58 104.155 284.498C103.688 284.21 103.575 283.979 103.28 283.592C102.985 283.205 102.631 282.705 102.248 282.123C101.484 280.96 100.579 279.468 99.6859 277.873C97.9595 274.791 95.2347 270.805 93.8421 269.311C92.2393 267.59 89.6796 264.391 88.0921 262.029C86.6693 259.913 83.1891 256.327 80.5609 254.373C77.7483 252.282 73.0293 248.258 69.9669 245.373C66.9724 242.553 61.1064 237.39 56.998 233.935C47.8041 226.206 29.055 209.013 23.217 202.966C19.7217 199.346 15.6698 194.346 12.3109 189.685C8.95175 185.025 6.29926 180.868 5.56096 178.404C3.27936 170.789 8.88536 163.113 16.78 163.123C18.5202 163.125 20.5369 163.87 22.8738 165.123C25.2107 166.377 27.8618 168.16 30.6863 170.373C36.3352 174.8 42.6853 180.926 48.5923 187.811C55.2031 195.515 61.0103 200.379 74.3423 209.373C79.1283 212.602 85.7292 217.486 89.1232 220.311C94.1942 224.531 97.4144 227.02 99.8732 228.405C102.332 229.79 103.992 230.124 106.311 230.124C108.935 230.124 110.677 229.578 112.217 228.155C113.757 226.733 115.113 224.307 116.561 220.436C118.376 215.585 118.926 211.504 117.998 206.436C117.071 201.369 114.6 195.281 110.279 186.686C107.88 181.913 105.395 176.301 104.654 173.905C104.01 171.822 101.745 165.929 99.6857 160.999C97.611 156.033 95.6455 151.002 95.1857 149.405C94.4454 146.836 90.7514 137.904 86.3732 127.967C81.995 118.031 76.8932 106.936 73.2171 99.5613C66.747 86.5823 63.1882 77.6683 62.3422 71.0923C61.9192 67.8046 62.1952 65.0662 63.2172 62.7798C64.2391 60.4934 65.9755 58.7218 68.3109 57.2798C70.4762 55.9428 72.4487 55.076 74.4671 55.1548C76.4855 55.2335 78.3748 56.3086 80.2484 58.3423C83.9957 62.4097 88.0825 70.4793 94.6234 84.7173C107.329 112.376 112.987 123.087 119.154 131.248C124.436 138.237 129.457 147.649 139.216 168.717C140.416 171.306 141.696 173.798 142.779 175.717C143.32 176.677 143.816 177.493 144.216 178.092C144.617 178.692 144.997 179.084 144.966 179.061C146.127 179.937 147.361 180.238 148.716 179.999C150.072 179.759 151.557 178.939 152.998 177.499C154.194 176.302 154.827 175.509 155.185 174.53C155.543 173.55 155.654 172.282 155.654 170.155C155.654 167.492 155.012 162.38 154.248 159.061C152.016 149.375 149.629 133.071 149.623 126.936C149.618 122.159 148.916 117.459 144.154 90.3107C142.574 81.3046 140.716 72.2737 138.935 64.9357C137.154 57.5982 135.394 51.8427 134.341 49.7477C132.975 47.029 131.194 41.9353 130.247 38.1227C129.33 34.4273 127.921 29.4842 127.154 27.3107C126.294 24.875 125.654 21.0167 125.654 18.3732C125.654 16.3865 125.799 14.938 126.435 13.5607C127.071 12.1834 128.11 10.9797 129.81 9.2795C131.558 7.531 132.761 6.4672 134.185 5.842C135.609 5.21677 137.113 5.12325 139.341 5.12325C141.423 5.12325 142.869 5.24537 144.154 5.717C145.439 6.18864 146.446 6.9988 147.56 8.1858C151.269 12.1402 155.176 20.1988 156.497 26.4668C157.064 29.1541 158.479 35.208 159.622 39.8728C160.773 44.5653 162.283 51.3278 162.997 54.9348C163.677 58.3683 165.682 64.3445 167.372 67.9348C168.251 69.8014 169.064 71.6481 169.653 73.1223C169.948 73.8594 170.168 74.5029 170.341 75.0285C170.514 75.5541 170.653 75.855 170.653 76.3723C170.653 76.3332 170.681 76.6553 170.778 77.0598C170.875 77.4643 171.034 78.0207 171.216 78.6223C171.58 79.8255 172.089 81.3232 172.653 82.8098C176.182 92.1036 177.703 98.0768 178.716 106.998C180.544 123.096 181.321 128.457 183.028 136.404C184.145 141.602 185.524 147.029 186.778 151.31C187.405 153.451 188.017 155.311 188.528 156.716C189.04 158.121 189.568 159.143 189.653 159.247C189.603 159.185 189.743 159.343 190.091 159.466C190.439 159.589 190.98 159.709 191.622 159.81C192.906 160.012 194.681 160.122 196.81 160.122C199.737 160.122 201.499 160.031 202.653 159.747C203.808 159.463 204.393 159.039 205.31 158.122C206.356 157.076 206.726 156.704 207.091 154.028C207.455 151.352 207.641 146.572 207.935 137.559C208.105 132.335 208.376 127.115 208.685 122.934C208.993 118.753 209.293 115.74 209.653 114.372C209.735 114.063 209.946 112.241 210.091 109.591C210.236 106.941 210.372 103.327 210.497 98.9027C210.747 90.0545 210.94 77.9727 211.06 63.8407C211.274 38.5237 211.313 26.4997 212.028 19.8717C212.743 13.2441 214.367 11.82 217.185 8.7157C218.715 7.0295 221.01 6.187 223.622 6.1532C226.234 6.11941 229.215 6.85388 232.435 8.2782C237.177 10.3759 240.299 13.6579 242.185 20.4662C244.07 27.274 244.927 37.6642 245.622 54.5912C245.893 61.1856 246.202 67.6032 246.497 72.6532C246.792 77.7037 247.105 81.4869 247.247 82.372C247.365 83.1094 247.41 84.6239 247.497 87.0595C247.584 89.4951 247.668 92.736 247.747 96.5907C247.905 104.3 248.049 114.412 248.122 125.029C248.272 146.779 248.495 158.843 249.435 167.06C250.374 175.277 251.992 179.614 255.06 186.185C260.272 197.353 268.08 207.342 276.591 213.747C285.61 220.535 290.64 222.719 300.279 224.059C306.777 224.962 311.031 225.332 314.217 225.059C317.403 224.786 319.556 223.924 322.123 222.277C324.242 220.918 325.36 220.05 326.717 218.027C328.073 216.005 329.623 212.798 332.31 206.965C339.428 191.516 342.972 185.298 347.841 179.934C349.78 177.799 352.938 173.75 354.748 171.059C361.134 161.566 370.058 153.238 379.498 147.997C384.486 145.227 391.324 145.581 396.779 148.779C400.338 150.865 402.614 153.089 403.372 155.716C404.13 158.344 403.241 161.136 401.06 164.029C397.302 169.013 385.005 191.028 383.185 195.967C381.055 201.746 376.345 209.819 372.779 213.779C371.97 214.676 370.579 216.774 369.06 219.404C367.541 222.033 365.859 225.24 364.216 228.529C360.932 235.106 357.874 242.1 357.06 245.279C356.105 249.007 352.625 257.506 349.216 264.529C345.832 271.5 342.242 279.02 341.31 281.123C340.328 283.339 338.229 287.548 336.623 290.592C335.035 293.601 332.07 299.445 330.029 303.561C323.464 316.796 318.11 324.928 311.841 331.061C308.634 334.198 304.696 337.507 300.997 340.248C297.298 342.989 293.902 345.151 291.591 346.029C290.544 346.427 288.726 347.932 288.028 348.998C287.323 350.074 286.168 353.009 285.153 356.436C284.139 359.862 283.207 363.829 282.653 367.28C282.242 369.835 280.979 375.676 279.841 380.374C278.05 387.757 275.584 414.198 275.622 426.249C275.629 428.561 276.175 430.471 276.716 431.311C276.986 431.731 277.21 431.784 277.153 431.78C277.096 431.775 277.154 431.855 277.434 431.405C277.366 431.515 277.437 431.35 277.497 431.124C277.557 430.897 277.641 430.584 277.716 430.186C277.865 429.391 278.041 428.298 278.216 426.999C278.564 424.399 278.93 420.958 279.278 417.28C279.975 409.924 280.559 401.584 280.591 396.999C280.619 392.847 281.659 386.701 283.184 381.437C283.865 379.088 284.487 376.61 284.934 374.531C285.382 372.451 285.653 370.697 285.653 370.093C285.653 368.163 286.327 365.22 287.216 363.093C287.995 361.228 288.653 358.525 288.653 357.656C288.653 355.844 289.614 353.953 290.903 352.281C292.193 350.608 293.808 349.149 295.591 348.593C298.481 347.692 304.449 343.494 310.06 338.531C315.67 333.568 321.122 327.782 323.498 323.875C326.302 319.261 330.633 311.43 334.248 304.594C336.055 301.176 337.668 298.019 338.841 295.625C339.428 294.428 339.897 293.419 340.216 292.688C340.376 292.322 340.517 292.019 340.591 291.813C340.666 291.607 340.654 291.399 340.654 291.656C340.654 291.001 340.899 290.452 341.216 289.906C341.534 289.361 341.96 288.826 342.466 288.406C342.634 288.267 343.146 287.608 343.591 286.781C344.037 285.955 344.48 284.94 344.779 284C345.146 282.847 346.155 280.406 347.591 277.188C349.028 273.97 350.853 270.047 352.716 266.188C354.566 262.356 356.332 258.441 357.654 255.219C358.975 251.997 359.852 249.326 359.966 248.563C360.187 247.095 361.035 244.849 362.248 242C363.46 239.151 365.042 235.782 366.716 232.438C368.391 229.093 370.157 225.784 371.748 223.031C373.339 220.279 374.708 218.11 375.779 216.938C379.923 212.401 383.153 206.874 386.123 199.063C387.657 195.027 389.888 190.299 391.279 188.251C392.464 186.504 395.192 181.726 397.248 177.813C399.358 173.797 402.689 168.691 404.842 166.219C407.302 163.392 408.5 161.764 408.873 160.312C409.246 158.861 408.922 157.301 407.967 154.344C406.581 150.055 405.843 149.193 401.217 146.125C398.57 144.369 397.271 143.536 395.623 143.125C393.974 142.714 391.792 142.696 387.56 142.75C384.025 142.795 381.717 142.936 380.029 143.25C378.341 143.564 377.273 144.025 375.998 144.844C374.149 146.03 371.326 147.774 369.654 148.75C367.434 150.046 363.363 153.745 358.716 158.719C354.07 163.692 348.761 169.939 343.778 176.469C342.595 178.019 339.9 182.79 336.934 188.5C333.968 194.209 330.671 200.944 328.09 206.719C324.861 213.944 323.198 216.272 319.372 218.969L314.872 222.125C314.673 222.27 314.429 222.336 314.184 222.312L304.778 221.219C294.803 220.042 287.749 217.277 281.309 212.031C279.553 210.6 276.719 208.329 275.028 207.031C274.006 206.247 272.644 204.804 271.059 202.969C269.474 201.133 267.691 198.927 266.028 196.75C264.365 194.572 262.803 192.434 261.653 190.687C261.078 189.814 260.622 189.047 260.278 188.406C259.934 187.765 259.653 187.398 259.653 186.656C259.653 186.787 259.62 186.481 259.496 186.125C259.373 185.768 259.171 185.288 258.934 184.75C258.46 183.673 257.81 182.324 257.09 181C255.547 178.162 253.96 173.722 253.465 170.781C251.415 158.583 250.512 136.284 251.09 113.593C251.462 98.9768 251.254 86.6088 250.653 82.2488C250.06 77.9563 249.226 64.0958 248.715 51.1548C248.071 34.8298 247.029 23.9978 245.215 17.0298C243.401 10.0614 240.981 7.10855 237.403 5.93575C235.357 5.26556 232.89 4.21605 231.621 3.43575C230.858 2.96615 227.982 2.07475 225.778 1.74825C219.581 0.830434 215.111 3.01185 211.309 8.93575L208.215 13.7796L208.027 60.0606C207.971 74.7716 207.835 86.7756 207.621 95.4356C207.514 99.7658 207.387 103.264 207.246 105.842C207.105 108.419 206.988 109.972 206.746 110.873C206.456 111.955 206.083 114.581 205.746 117.842C205.409 121.102 205.097 125.049 204.84 129.03C204.326 136.989 204.078 145.175 204.371 147.811C204.676 150.556 204.26 152.887 203.059 154.561C201.857 156.234 199.871 157.123 197.496 157.123C195.447 157.123 193.64 156.248 192.34 154.186C191.04 152.123 190.006 148.942 188.652 143.874C185.466 131.937 183.417 119.562 181.809 102.718C181.118 95.4856 178.2 84.0736 175.246 76.9986C174.528 75.2795 173.185 71.4842 172.184 68.4361C171.215 65.4885 169.534 61.7535 168.684 60.5299C167.503 58.8298 166.652 56.2782 166.652 54.2799C166.652 52.8145 166.145 50.1532 165.621 48.7799C164.943 47.001 163.637 41.8198 162.559 36.8419C161.486 31.8907 160.188 25.8499 159.653 23.4359C158.684 19.0642 156.745 14.3025 154.528 10.3739C152.31 6.44476 149.719 3.35125 147.809 2.28005C146.876 1.75703 144.161 1.27325 141.246 1.21755L141.25 1.21901Z" fill="white" fill-opacity="0.40"/>
<path d="M137.41 0.843994C129.009 1.3288 121.208 8.39329 120.441 16.813C120.423 22.2545 123.393 27.168 124.357 32.504C126.587 41.3814 129.433 50.1 133.285 58.376C136.031 68.0385 137.268 78.209 139.637 88.035C143.326 105.74 145.89 123.665 147.316 141.688C148.212 150.213 149.307 158.814 152.066 166.907C152.369 169.928 152.146 174.573 148.597 175.376C144.945 174.705 144.945 170.005 143.249 167.313C138.119 155.893 133.212 144.298 126.691 133.595C121.624 126.625 115.579 120.124 112.524 111.963C106.709 101.935 103.143 90.8729 97.8227 80.5619C93.2786 71.5612 88.8943 62.3079 83.3467 53.9379C78.4018 48.4594 69.1247 49.2002 64.0767 54.2187C57.7071 59.4388 55.9939 68.8757 59.1099 76.3867C65.0481 96.5777 76.4619 114.469 84.3409 133.818C89.7711 146.399 93.8766 159.484 99.4399 172.001C102.688 181.117 106.552 189.931 110.971 198.501C114.343 205.147 116.052 213.327 112.127 220.126C110.852 222.741 108.968 226.842 105.502 226.501C100.478 223.865 96.353 219.717 91.7211 216.407C82.054 208.595 71.1731 202.232 61.6961 194.351C49.0251 182.893 38.8031 167.58 23.0341 159.876C13.8346 155.894 1.89412 162.022 0.645116 172.12C-0.758084 181.524 6.10911 189.335 11.2891 196.386C25.1961 213.483 42.7191 227.11 58.8921 241.954C65.9478 248.409 73.2991 254.759 80.8781 260.407C84.6759 263.994 86.8776 268.957 90.4809 272.892C99.2695 284.829 108.064 296.911 114.06 310.558C118.369 319.988 123.259 329.231 129.847 337.25C139.539 352.343 152.829 364.577 165.936 376.512C168.687 379.673 172.594 382.361 174.132 386.24C175.403 389.983 176.445 393.862 175.469 397.87C173.746 410.325 168.003 422.859 171.659 435.531C175.994 423.852 177.342 411.344 179.336 399.096C180.411 391.567 180.565 382.471 174.128 377.281C161.607 364.964 148.064 353.542 137.573 339.417C129.686 328.893 122.127 317.992 116.982 305.815C112.971 297.338 108.81 288.529 102.431 281.75C98.986 274.911 94.1591 268.914 89.347 263.094C83.5767 254.577 74.122 249.618 67.127 242.229C50.789 227.677 33.634 213.91 19.059 197.616C13.9555 191.159 8.05002 184.662 5.53502 176.625C4.20832 169.194 12.1306 161.165 19.597 164.219C28.977 167.983 36.139 175.525 43.158 182.49C50.7906 190.907 58.251 199.399 68.006 205.445C78.255 212.501 88.254 219.856 97.785 227.719C102.158 230.753 109.403 232.304 113.191 227.625C117.008 222.891 118.749 216.451 118.816 210.375C118.139 197.213 109.358 186.565 105.331 174.411C99.5929 159.787 94.224 145.031 88.028 130.592C80.7142 113.022 71.237 96.3839 64.499 78.5579C62.3024 72.1397 60.8685 63.3629 67.0351 58.6249C70.2259 55.7436 75.712 54.3659 79.0041 57.6874C84.196 62.7243 86.7759 69.8114 90.1621 76.0834C98.9839 94.3824 106.461 113.731 118.146 130.494C129.155 145.22 134.99 162.981 144.16 178.718C146.688 182.075 152.101 180.02 154.066 177C157.441 173.024 155.661 167.308 155.349 162.574C152.97 150.594 150.441 138.597 150.004 126.343C149.284 113.386 146.114 100.741 144.191 87.9366C141.473 72.7726 138.322 57.5956 132.26 43.3966C130.105 36.041 127.816 28.6476 126.219 21.2216C125.487 16.9184 126.564 12.3014 130.035 9.5606C133.371 5.3434 139.514 4.4583 144.285 6.2794C150.411 9.9036 153.006 17.1924 155.285 23.6234C158.133 34.5374 159.356 45.6694 165.313 56.1364C166.734 63.0051 167.938 69.5284 170.173 76.0164C172.131 84.0586 174.206 91.6944 175.992 99.7074C178.554 114.368 180.12 129.404 184.336 143.765C185.813 149.055 186.273 152.695 190.156 157.8C194.227 159.258 198.119 160.509 202.379 160.311C206.755 158.264 208.185 155.331 207.743 151.503C208.491 137.629 208.617 123.693 210.458 109.907C212.078 79.6204 210.76 49.2464 212.485 18.9724C212.294 12.616 216.418 5.4634 226.349 4.6034C233.408 6.1518 239.046 6.9029 241.754 18.5124C245.032 29.6444 244.356 42.0344 245.169 53.5864C246.017 73.9864 247.917 94.3414 247.619 114.778C247.891 133.235 247.412 151.779 249.379 170.153C252.63 187.353 262.741 203.098 276.223 214.091C284.023 220.464 293.613 224.374 303.688 224.964C311.231 226.167 320.24 226.127 325.629 219.997C330.112 214.747 332.03 207.648 335.223 201.622C339.427 192.421 344.624 183.576 351.504 176.184C357.827 167.261 364.494 158.494 373.542 152.287C378.691 148.124 385.296 145.186 391.879 147.153C396.783 148.583 402.414 151.845 403.223 157.341C402.818 163.066 397.672 166.975 395.477 172.075C389.008 182.616 383.759 193.823 378.472 204.934C374.077 212.065 368.213 218.352 365.004 226.068C360.143 234.859 357.036 244.413 353.518 253.792C344.935 273.529 335.204 292.895 325.161 311.993C319.614 322.366 312.165 331.637 302.769 338.402C298.666 341.785 293.666 344.393 289.159 347.215C285.05 351.422 284.584 357.87 283.041 363.328C280.266 375.971 277.544 388.648 276.628 401.59C275.865 410.426 275.021 419.376 275.441 428.215C276.384 430.819 279.477 428.041 278.972 426.09C279.843 416.386 280.608 406.538 281.106 396.753C281.195 386.32 285.776 376.815 286.597 366.497C287.975 362.617 288.872 358.575 289.847 354.685C291.685 350.314 296.233 348.902 299.986 346.695C311.749 339.034 322.075 328.805 328.455 316.158C332.793 308.157 337.225 300.051 341.065 291.872C341.447 288.809 344.847 287.262 345.188 284.065C350.349 270.747 358.004 258.429 361.67 244.539C366.38 233.566 371.424 222.374 379.352 213.306C385.569 204.397 387.847 193.313 394.01 184.466C398.18 176.629 402.786 168.858 408.503 162.216C410.653 158.132 408.314 153.295 406.284 149.686C402.201 145.473 396.659 141.926 390.503 142.264C384.513 142.263 378.039 142.119 373.128 146.061C361.801 152.914 353.389 163.839 345.138 174.115C337.341 184.543 332.663 196.901 326.753 208.436C324.538 214.487 319.858 218.987 314.222 221.842C302.506 220.861 289.742 219.275 280.766 211.086C272.853 205.589 266.919 197.672 261.472 189.655C259.394 185.445 257.816 181.027 255.628 176.842C252.919 169.305 252.865 160.997 252.055 153.034C250.041 125.76 253.46 98.3305 250.121 71.1265C248.595 51.9255 250.078 33.0865 244.872 14.4095C243.486 10.1331 239.938 4.4839 235.403 3.5985C229.347 0.325703 222.477 0.0853019 215.035 3.96739C211.863 6.76779 209.265 10.6544 207.811 14.5924C207.414 46.3764 208.259 78.2124 206.473 109.955L204.013 151.095C203.695 155.8 197.574 158.606 194.075 155.47C189.955 151.018 189.471 144.364 187.774 138.764C184.236 124.232 180.551 109.932 178.681 94.5234C177.356 83.2564 174.349 72.7334 170.044 62.3134C169.334 58.6764 167.734 55.5984 166.764 51.8454C164.724 44.0704 162.614 36.1304 161.184 28.0694C159.154 18.7964 156.024 8.80739 148.764 2.40839C145.503 0.410094 141.179 0.953293 137.42 0.877193L137.41 0.843994ZM170.754 74.469C170.84 74.3242 170.258 74.9081 170.754 74.469V74.469ZM170.598 74.594C170.124 75.0798 170.559 74.4452 170.598 74.594V74.594ZM170.723 74.469C170.637 74.4334 170.758 74.5549 170.723 74.469V74.469ZM170.754 74.469H170.723H170.754ZM170.691 74.594C170.902 74.8545 170.518 74.7059 170.691 74.594V74.594ZM406.281 157.625C406.385 158.886 406.461 160.328 405.469 161.281C405.969 160.329 406.144 157.759 406.281 157.625ZM351.906 170.5C349.962 173.564 347.653 176.139 345.375 178.938C347.658 175.506 350.212 172.354 352.813 169.219C352.511 169.646 352.209 170.073 351.906 170.5L351.906 170.5Z" fill="white" fill-opacity="0.40"/>
</svg>
