<?xml version="1.0"?>

<svg width="236" height="211" viewBox="0 0 236 211" fill="none" xmlns="http://www.w3.org/2000/svg">
<path d="M84.723 210.397C84.5463 210.396 84.3716 210.359 84.209 210.29C84.0465 210.221 83.8993 210.12 83.776 209.994C83.6528 209.867 83.5559 209.717 83.491 209.553C83.4261 209.388 83.3945 209.213 83.3981 209.036C83.3981 207.452 83.3981 205.867 83.3981 204.274C83.3981 200.693 83.4429 196.996 83.6309 193.352C83.8179 188.446 84.2751 183.554 85.0005 178.698C86.209 171.214 91.0163 166.165 99.6818 163.283C104.951 161.581 110.118 159.582 115.16 157.294C123.646 153.319 131.864 149.076 139.473 145.074C147.504 140.909 155.236 136.192 162.614 130.957C168.478 126.749 175.067 123.643 181.414 120.635L181.736 120.483C187.277 117.86 192.872 115.112 198.288 112.426L204.554 109.356C210.152 106.683 215.117 102.85 219.119 98.1119C222.861 93.6359 226.881 89.3121 230.757 85.1225L230.981 84.872C231.496 84.3682 231.89 83.7548 232.135 83.0775C232.38 82.4002 232.469 81.6764 232.395 80.9599L232.252 79.0442C232.154 77.7462 232.055 76.457 231.939 75.1679C231.715 72.5897 228.546 70.692 225.95 70.7726C214.522 71.0223 203.346 74.1737 193.472 79.9304C186.322 83.977 178.593 86.8997 170.555 88.5959C165.064 89.741 159.432 90.0428 153.85 89.4911C149.544 89.1062 146.474 88.2379 144.182 86.7519C143.681 86.4296 143.171 86.1252 142.651 85.8567C139.966 84.2543 136.958 82.437 135.714 78.7935C135.595 78.4576 135.615 78.0883 135.768 77.7668C135.922 77.4453 136.197 77.1979 136.533 77.0792C136.869 76.9605 137.238 76.9801 137.56 77.1337C137.881 77.2873 138.128 77.5624 138.247 77.8983C139.142 80.5839 141.541 82.0342 144.03 83.5381C144.576 83.8604 145.122 84.1916 145.641 84.5228C147.53 85.7403 150.287 86.5012 154.092 86.8414C159.396 87.3836 164.752 87.1088 169.973 86.0267C177.741 84.3912 185.212 81.568 192.12 77.6566C202.382 71.6776 213.995 68.4033 225.869 68.1406C229.719 68.0422 234.239 70.8262 234.615 74.98C234.732 76.287 234.83 77.594 234.929 78.9009L235.072 80.7988C235.173 81.8857 235.036 82.9816 234.669 84.0099C234.303 85.0382 233.716 85.974 232.95 86.7519L232.726 87.0025C228.859 91.1652 224.858 95.48 221.16 99.8844C216.922 104.917 211.657 108.986 205.718 111.817L199.452 114.888C194.027 117.574 188.423 120.34 182.855 122.945L182.533 123.097C176.266 126.051 169.785 129.113 164.118 133.177C156.646 138.491 148.812 143.277 140.673 147.5C133.028 151.52 124.774 155.781 116.243 159.782C111.109 162.116 105.845 164.154 100.479 165.888C92.7351 168.457 88.644 172.682 87.5966 179.181C86.8927 183.928 86.4445 188.709 86.2538 193.504C86.0747 197.085 86.0568 200.764 86.03 204.309C86.03 205.903 86.03 207.496 86.03 209.09C86.0188 209.433 85.8775 209.759 85.6348 210.002C85.3921 210.244 85.0661 210.386 84.723 210.397Z" fill="white" fill-opacity="0.50"/>
<path d="M1.37985 210.603C1.25262 210.602 1.12608 210.584 1.00388 210.549C0.667318 210.445 0.384852 210.214 0.217409 209.904C0.0499664 209.594 0.0109477 209.231 0.108678 208.893C0.16239 208.705 0.22501 208.517 0.287674 208.329C0.383389 208.09 0.452475 207.84 0.493608 207.586C0.735312 204.739 0.941199 201.892 1.15605 199.046L1.89908 189.198C2.18554 185.498 2.46604 181.798 2.74057 178.098C2.87485 176.308 3.02702 174.517 3.17921 172.727C3.52834 168.573 3.88643 164.285 4.02966 160.078C4.14174 153.663 5.15424 147.295 7.03752 141.162C7.67311 139.202 8.26394 137.187 8.82792 135.236C9.80369 131.95 10.8063 128.558 12.0148 125.281C15.1212 116.848 18.129 109.302 21.1906 102.203C27.5555 87.4769 34.0815 72.9657 39.0946 61.919C44.4658 50.1202 49.4879 39.2256 54.5368 28.6175C57.9655 21.4559 63.9722 16.219 72.8884 12.7545C75.7889 11.6266 79.2443 10.6419 82.9415 11.8593C83.281 11.9686 83.5633 12.2082 83.7261 12.5255C83.889 12.8428 83.9191 13.2118 83.8099 13.5513C83.7007 13.8908 83.461 14.173 83.1437 14.3359C82.8264 14.4987 82.4575 14.5288 82.1179 14.4196C79.2354 13.5244 76.4423 14.2853 73.8642 15.3148C65.6104 18.5196 60.087 23.2642 56.9628 29.8261C51.9139 40.4163 46.8739 51.3108 41.5475 63.0827C36.5702 74.0668 30.0531 88.569 23.6972 103.277C20.6445 110.331 17.6635 117.833 14.5751 126.212C13.3934 129.417 12.3998 132.765 11.4419 136.006C10.86 137.975 10.2513 140.007 9.65149 141.995C7.83107 147.884 6.86047 154.003 6.76897 160.167C6.62574 164.455 6.25871 168.779 5.87377 172.96C5.72159 174.75 5.56936 176.54 5.44404 178.331C5.15757 182.037 4.85917 185.74 4.54884 189.44L3.80586 199.287C3.59101 202.134 3.38507 204.99 3.14336 207.846C3.09039 208.324 2.97605 208.793 2.80318 209.242C2.75842 209.376 2.70475 209.519 2.66894 209.663C2.5828 209.937 2.41111 210.176 2.1791 210.345C1.94709 210.514 1.66698 210.604 1.37985 210.603V210.603Z" fill="white" fill-opacity="0.50"/>
<path d="M211.34 56.7984C209.003 56.8895 206.681 56.3853 204.592 55.3331C202.503 54.2808 200.716 52.715 199.398 50.7826C198.181 49.0728 197.098 47.2556 196.05 45.4921C195.585 44.7043 195.155 43.9076 194.627 43.1288C194.534 42.9783 194.472 42.8109 194.443 42.6363C194.415 42.4618 194.422 42.2835 194.462 42.1114C194.503 41.9393 194.577 41.7769 194.681 41.6335C194.784 41.4901 194.915 41.3685 195.065 41.2756C195.216 41.1828 195.383 41.1205 195.558 41.0923C195.732 41.064 195.911 41.0704 196.083 41.1112C196.255 41.1519 196.417 41.2261 196.561 41.3296C196.704 41.4331 196.826 41.5638 196.919 41.7143C197.402 42.511 197.885 43.3167 198.36 44.1224C199.38 45.8322 200.428 47.6047 201.583 49.216C204.483 53.2534 208.538 54.7395 214.357 53.8712C216.713 53.5883 218.963 52.7306 220.91 51.3735C223.694 49.3951 224.419 47.5779 223.488 44.8923C220.122 35.1614 215.306 27.8835 208.762 22.745C206.264 20.7756 203.131 20.0594 199.81 19.3343L198.145 18.9583C194.099 18.0005 190.777 17.2932 187.707 16.7382C186.248 16.4786 184.726 16.2727 183.231 16.0757C180.797 15.801 178.382 15.3826 175.998 14.8225C173.642 14.3418 171.229 14.215 168.836 14.4465L167.449 14.5002H167.269C166.719 14.6223 166.142 14.5295 165.658 14.2406C162.973 12.4502 159.983 11.8594 156.76 11.2417C155.005 10.9359 153.269 10.5323 151.559 10.0331C147.656 8.81565 143.502 7.89369 139.581 6.99849L136 6.20175L133.162 5.53035C127.102 4.07117 120.835 2.5583 114.605 3.41769C110.344 4.14287 106.169 5.30067 102.144 6.87315C97.3365 8.58298 92.5203 10.5792 87.8205 12.5218L85.4034 13.5244C84.5279 13.7838 83.7749 14.3494 83.2818 15.1179C82.5988 16.0935 81.6731 16.8742 80.5962 17.3828L80.1844 17.6334C78.5014 18.6539 76.7647 19.6387 75.0907 20.6055L73.0228 21.7871C72.8702 21.89 72.6981 21.9605 72.5171 21.9941C72.3361 22.0277 72.1502 22.0237 71.9708 21.9824C71.7915 21.9411 71.6225 21.8633 71.4744 21.754C71.3264 21.6447 71.2024 21.506 71.1102 21.3467C71.0179 21.1874 70.9594 21.0109 70.9382 20.8281C70.9171 20.6452 70.9337 20.46 70.9872 20.2839C71.0406 20.1078 71.1297 19.9445 71.2489 19.8043C71.3681 19.664 71.5148 19.5497 71.68 19.4686L73.7569 18.269C75.4219 17.3201 77.1407 16.3354 78.7968 15.3327L79.2444 15.0641C79.8969 14.7568 80.4767 14.3144 80.9453 13.7661C81.7392 12.5014 82.9481 11.552 84.365 11.0805L86.7821 10.0779C91.4729 8.12639 96.3159 6.11219 101.195 4.37551C105.393 2.73756 109.749 1.53759 114.193 0.794706C120.916 -0.100494 127.433 1.43928 133.735 2.95217L136.555 3.62357L140.073 4.42031C144.102 5.31551 148.255 6.21067 152.275 7.50871C153.887 7.97962 155.525 8.3592 157.181 8.64563C160.43 9.27227 163.787 9.9168 166.822 11.8773C166.962 11.8688 167.103 11.8688 167.243 11.8773L168.594 11.8146C171.264 11.5653 173.956 11.7192 176.58 12.2711C178.864 12.8027 181.178 13.2033 183.508 13.4708C185.003 13.6677 186.552 13.8736 188.083 14.1511C191.198 14.7151 194.555 15.4313 198.655 16.3981L200.293 16.765C203.758 17.5439 207.339 18.3406 210.32 20.695C217.275 26.1915 222.378 33.8365 225.923 44.0686C227.713 49.1176 224.723 51.9375 222.342 53.6205C220.044 55.2168 217.393 56.2334 214.617 56.5835C213.531 56.7339 212.436 56.8057 211.34 56.7984V56.7984Z" fill="white" fill-opacity="0.50"/>
<path d="M107.345 26.9345C104.298 26.8815 101.256 26.6694 98.2316 26.299C96.8172 26.1557 95.4118 26.0036 93.9974 25.8962C93.6412 25.8677 93.311 25.6988 93.0793 25.4268C92.8476 25.1549 92.7335 24.8021 92.762 24.446C92.7905 24.0898 92.9593 23.7596 93.2312 23.5279C93.5032 23.2962 93.8561 23.1821 94.2122 23.2106C95.6445 23.3269 97.0768 23.4701 98.5092 23.6223C101.636 24.0123 104.784 24.2156 107.936 24.2311C114.202 24.1416 120.468 23.5149 125.911 22.942C130.729 22.5104 135.514 21.7628 140.234 20.704C146.814 19.1105 153.412 17.0337 159.786 15.0284L160.045 14.9478C161.358 14.4792 162.621 13.8794 163.814 13.1574C164.432 12.8172 165.04 12.477 165.667 12.1637C165.98 12.0334 166.331 12.0263 166.649 12.1438C166.967 12.2614 167.229 12.495 167.382 12.7975C167.535 13.1001 167.567 13.4493 167.474 13.7751C167.38 14.1009 167.166 14.3791 166.876 14.5539C166.285 14.8494 165.703 15.1716 165.085 15.4491C163.736 16.2545 162.308 16.9203 160.824 17.4365L160.564 17.5171C154.146 19.5403 147.503 21.626 140.87 23.2463C136.032 24.3311 131.127 25.0967 126.189 25.5381C120.71 26.1199 114.327 26.7555 107.971 26.845L107.345 26.9345Z" fill="white" fill-opacity="0.50"/>
<path d="M142.365 84.6391C142.025 84.6397 141.697 84.5103 141.449 84.2773C141.201 84.0443 141.052 83.7254 141.031 83.3858C141.031 83.0546 140.977 82.7144 140.942 82.3832C140.848 81.5601 140.809 80.7317 140.825 79.9035C140.825 79.4827 140.825 79.0709 140.825 78.6502C140.817 76.8938 140.973 75.1406 141.291 73.4133C142.562 67.6303 147.083 65.1416 151.603 63.0826C152.132 62.8409 152.678 62.6171 153.224 62.3933C154.524 61.9337 155.758 61.3047 156.894 60.5224C160.842 57.4608 164.808 54.256 168.639 51.1765C171.217 49.0997 173.786 47.0228 176.374 44.9728C177.456 44.0525 178.762 43.4349 180.16 43.1824C181.179 43.0932 182.203 43.0932 183.222 43.1824C184.189 43.2589 185.161 43.2349 186.122 43.1108C191.306 42.2156 196.73 41.0696 201.117 37.3277C201.251 37.2102 201.407 37.1201 201.576 37.0628C201.744 37.0055 201.923 36.982 202.101 36.9937C202.279 37.0053 202.453 37.0519 202.612 37.1307C202.772 37.2095 202.915 37.319 203.033 37.4531C203.15 37.5871 203.24 37.743 203.298 37.9118C203.355 38.0806 203.378 38.259 203.367 38.4369C203.355 38.6148 203.309 38.7886 203.23 38.9485C203.151 39.1084 203.041 39.2512 202.907 39.3688C198.002 43.5583 191.923 44.8653 186.615 45.7605C185.47 45.916 184.312 45.952 183.159 45.868C182.286 45.796 181.409 45.796 180.536 45.868C179.63 46.0707 178.789 46.4987 178.092 47.1123C175.508 49.1593 172.933 51.2213 170.367 53.2982C166.526 56.3956 162.552 59.5645 158.577 62.6798C157.255 63.6156 155.813 64.3684 154.289 64.9178C153.779 65.1237 153.26 65.3386 152.767 65.5624C148.703 67.4154 144.97 69.4564 143.958 74.0309C143.679 75.5878 143.545 77.167 143.556 78.7486C143.556 79.1783 143.556 79.6439 143.556 80.0378C143.544 80.7496 143.58 81.4613 143.663 82.1684C143.663 82.5264 143.726 82.8845 143.753 83.2426C143.765 83.419 143.742 83.5961 143.685 83.7637C143.629 83.9313 143.54 84.086 143.423 84.2191C143.307 84.3521 143.165 84.461 143.007 84.5392C142.848 84.6175 142.676 84.6635 142.499 84.6749L142.365 84.6391Z" fill="white" fill-opacity="0.50"/>
</svg>
