<?xml version="1.0"?>
<svg width="401" height="428" viewBox="0 0 401 428" fill="none" xmlns="http://www.w3.org/2000/svg">
<path d="M262.18 427.95C255.81 410.78 243.48 399.25 228.78 388.66C200.7 368.42 172.71 347.77 146.78 324.86C130.94 310.86 119.42 292.01 105.35 275.86C97.1939 266.389 88.3174 257.562 78.8 249.46C62.93 236.14 64.4101 221.99 83.5301 213.46C100.68 205.82 117.17 208.16 132.14 218.68C143.85 226.91 154.66 236.41 166.83 246.12C174.64 218.84 168.32 185.37 205.46 168.87C192.87 163.24 183.95 158.64 174.6 155.25C164.91 151.74 154.6 149.93 144.93 146.42C134.42 142.6 127.48 135.02 127.43 123.22C127.43 111.67 133.82 103.58 143.77 98.78C165.06 88.5 187.46 89.4 209.84 93.94C235.91 99.24 257.94 111.33 273.19 135.37C289.36 125.04 302.19 132.8 312.51 144.25C335.44 169.57 357.84 195.4 379.39 221.89C384.01 227.58 385.47 236.89 386.01 244.64C387.034 258.116 386.917 271.654 385.66 285.11C383.09 310.88 378.93 336.58 400.87 358.11C358.44 379.38 318.29 399.44 278.22 419.65C273.56 422 269.29 425.14 264.84 427.92L262.18 427.95ZM376.96 352.04C364.78 333.51 366.84 314.65 368.29 295.67C369.53 279.53 369.97 263.3 370.11 247.1C370.11 241.88 369.78 235.24 366.75 231.65C343.85 204.497 320.463 177.77 296.59 151.47C293.87 148.47 287.35 148.93 279.72 147.09C284.84 163.09 289.3 174.9 292.12 187.04C293.28 192.04 290.89 197.78 290.12 203.19C285.81 199.55 279.61 196.75 277.57 192.12C272.33 180.24 269.57 167.28 264.7 155.23C249.08 116.82 190.7 94.18 153.7 112.23C149.52 114.23 145.23 119.45 144.46 123.78C144.04 126.18 150.37 131.2 154.46 132.68C165.02 136.45 176.19 138.46 186.85 141.99C201.85 146.94 216.04 154.71 220.85 170.45C229.29 198.2 233.24 227.04 226.31 255.7C220.47 279.86 196.46 288.22 175.5 274.7C168.73 270.32 162.63 264.87 156.36 259.7C144.87 250.3 134.05 239.95 121.9 231.52C108.33 222.11 96.7301 223.31 87.0301 231.78C98.0801 244.04 109.38 256.04 119.97 268.61C130.56 281.18 138.91 296.32 151.08 307.04C176.08 329.04 202.98 348.77 229.08 369.42C243.08 380.47 257.08 391.49 272.92 403.97L376.96 352.04ZM210.87 187.45L205.3 185.68C200.92 191.24 194.14 196.22 192.6 202.49C188.45 219.35 185.97 236.7 183.96 253.99C183.673 255.979 183.98 258.009 184.842 259.824C185.703 261.64 187.082 263.161 188.804 264.197C190.526 265.232 192.516 265.737 194.523 265.647C196.531 265.556 198.468 264.876 200.09 263.69C205.09 260.2 210.94 253.69 211.22 248.31C212.26 228.09 211.16 207.75 210.87 187.45Z" fill="white" fill-opacity="0.08"/>
<path d="M0 265.7H58.61V324.48H43.93V281.93H0V265.7Z" fill="white" fill-opacity="0.08"/>
<path d="M248.43 43.77V59.15H190.23V1.31999L205.13 0.62999V43.77H248.43Z" fill="white" fill-opacity="0.08"/>
</svg>

