<?xml version="1.0"?>
<svg width="2730" height="1557" viewBox="0 0 2730 1557" fill="none" xmlns="http://www.w3.org/2000/svg">
<path d="M5.27917 271.157L0.109131 270.827V266.827L1.93921 265.987L0.109131 264.827V214.827L3.73914 214.597C3.73914 217.867 4.56916 221.387 3.63916 224.367C-0.27084 236.877 2.89918 249.107 4.28918 261.437C4.64918 264.687 4.94917 267.927 5.27917 271.157Z" fill="#898E8E"/>
<path d="M0.109131 202.837L5.31921 202.517C4.89921 205.287 4.47919 208.067 4.04919 210.837H0.109131V202.837Z" fill="#898E8E"/>
<path d="M213.029 533.096C212.849 524.506 212.579 515.956 215.649 507.636C217.479 502.636 216.349 498.116 213.259 493.526C210.185 489.197 207.95 484.329 206.669 479.176C204.489 468.876 208.179 460.046 216.469 453.566C224.759 447.086 234.149 446.567 243.849 450.447C249.609 452.757 255.409 454.996 262.139 457.636C262.139 464.136 266.869 468.977 271.919 473.957C312.019 513.477 352.019 553.11 391.919 592.856C405.829 606.736 419.139 621.216 432.799 635.346C440.499 643.346 440.569 643.256 450.639 638.866C497.639 618.406 544.639 597.946 591.639 577.486C643.869 554.826 696.259 532.486 748.339 509.486C761.339 503.726 773.689 496.236 785.949 488.896C789.689 486.656 793.409 482.746 794.949 478.756C800.249 464.876 816.029 455.516 832.689 462.006C848.239 468.076 857.359 487.616 852.049 503.296C848.979 512.356 843.449 519.806 836.359 526.086C821.139 539.621 803.876 550.667 785.209 558.816C704.019 594.176 622.629 629.096 541.349 664.296C515.999 675.296 490.879 686.807 465.479 697.697C434.819 710.837 419.979 708.076 396.419 684.136C366.979 654.216 338.019 623.826 308.839 593.656C306.369 591.096 303.839 588.586 299.839 584.496C300.039 588.496 299.739 590.426 300.279 592.026C316.749 640.916 331.689 690.377 352.459 737.707C361.459 758.167 371.709 777.966 385.459 795.776C386.279 796.836 387.139 797.857 387.899 798.947C399.899 816.167 416.379 822.317 436.689 817.947C455.219 813.947 473.959 810.536 492.069 805.096C569.519 781.816 646.669 757.536 724.139 734.306C783.139 716.626 842.379 699.986 901.529 682.876C915.629 678.796 929.339 673.876 942.069 666.326C955.209 658.486 970.389 661.326 980.069 672.566C989.749 683.806 989.839 699.267 979.629 710.947C975.308 716.001 969.986 720.103 963.999 722.996C950.089 729.296 935.999 735.926 921.339 739.746C801.339 770.916 684.199 811.456 565.409 846.586C529.989 857.056 494.289 866.726 458.409 875.336C444.699 878.616 430.009 878.906 415.789 878.776C392.429 878.576 372.649 868.776 355.789 852.776C337.929 835.776 324.699 815.486 313.129 793.996C293.469 757.506 279.549 718.626 265.939 679.626C264.739 676.166 263.519 672.716 262.209 669.296C262.019 668.796 261.279 668.496 260.609 667.966L258.609 678.496C249.696 649.963 240.786 621.436 231.879 592.916C225.533 573.003 219.249 553.063 213.029 533.096Z" fill="#04AEFF"/>
<path d="M2039.28 521.406C2039.21 531.726 2039.1 542.046 2039.07 552.356C2038.9 614.356 2039.65 676.356 2038.35 738.256C2036.81 811.256 2038.78 884.146 2042.35 957.036C2044.21 994.966 2044.97 1032.95 2046.03 1070.91C2046.22 1077.76 2046.79 1083.71 2053.08 1088.36C2058.02 1092.02 2059.26 1098.25 2060.42 1104.36C2061.51 1110.1 2062.88 1116.11 2065.66 1121.16C2079.89 1146.78 2095.83 1171.41 2113.38 1194.88C2162.99 1261.74 2212.38 1328.77 2262.1 1395.54C2275.03 1412.89 2289.03 1429.43 2302.39 1446.47C2306.69 1451.96 2311.1 1457.47 2314.39 1463.6C2317.61 1469.6 2318.64 1476.53 2317.31 1483.2C2315.98 1489.88 2312.37 1495.89 2307.1 1500.2C2301.83 1504.51 2295.23 1506.86 2288.42 1506.84C2281.61 1506.82 2275.03 1504.44 2269.78 1500.1C2265.7 1496.78 2262.34 1492.51 2258.91 1488.46C2228.91 1453.14 2202.23 1415.28 2174.83 1377.97C2145.07 1337.43 2114.25 1297.66 2085.04 1256.74C2066.69 1231.05 2050.44 1203.86 2033.26 1177.33C2031.31 1174.33 2029.41 1171.33 2026.87 1167.27C2017.57 1183.58 2009.11 1198.95 2000.14 1214.02C1976.14 1254.34 1952.96 1295.19 1927.6 1334.63C1889.71 1393.34 1856.63 1455.01 1828.68 1519.05C1825.56 1526.4 1822.02 1533.57 1818.09 1540.52C1811.7 1551.52 1801.77 1557.32 1788.98 1556.01C1775.3 1554.6 1766.65 1546.13 1762.59 1533.32C1758.59 1520.72 1760.8 1509.06 1769.17 1498.55C1772.44 1494.45 1775.68 1490.08 1777.75 1485.31C1806.56 1419.25 1842.01 1356.89 1880.61 1296.09C1907.51 1253.7 1932.2 1209.9 1957.73 1166.64C1965.17 1154.04 1971.99 1141.07 1979.36 1128.43C1983.66 1121.04 1986.15 1113.34 1985.93 1104.75C1984.81 1060.8 1984.66 1016.75 1982.44 972.886C1978.15 887.996 1975.97 803.116 1978.34 718.136C1979.57 673.846 1980.16 629.536 1981.62 585.256C1982.35 563.256 1984.38 541.396 1985.83 519.466L2039.28 521.406Z" fill="white"/>
<path d="M213.029 533.097C219.249 553.057 225.473 573.02 231.699 592.987C240.599 621.513 249.509 650.04 258.429 678.567C257.019 720.837 255.429 763.107 254.259 805.387C250.799 935.937 250.819 1066.51 251.849 1197.09C251.849 1203.47 252.849 1208.29 259.029 1212.02C263.029 1214.43 266.399 1218.94 268.589 1223.26C282.739 1251.05 303.749 1273.26 325.879 1294.56C329.719 1298.25 333.589 1301.93 337.629 1305.4C379.279 1341.12 415.339 1382.04 449.539 1424.76C462.639 1441.12 476.799 1456.64 490.429 1472.57C493.889 1476.62 497.639 1480.51 500.429 1484.98C508.569 1497.8 506.429 1513.39 495.539 1523.15C484.989 1532.65 469.729 1533.41 457.849 1524.66C454.131 1521.85 450.737 1518.63 447.729 1515.07C429.089 1493.34 410.329 1471.7 392.129 1449.61C367.129 1419.24 340.969 1390 312.129 1363.1C285.339 1338.1 259.799 1311.79 239.129 1281.26C238.459 1280.26 237.309 1279.59 235.899 1278.34C234.899 1279.8 234.109 1280.75 233.529 1281.83C207.689 1329.98 177.459 1375.41 147.649 1421.13C132.049 1445.06 118.649 1470.41 103.879 1494.9C97.1793 1505.99 89.9493 1516.82 82.2493 1527.24C74.8193 1537.24 64.5193 1542.39 51.7593 1540.24C47.6374 1539.54 43.7125 1537.97 40.2495 1535.63C36.7866 1533.29 33.8663 1530.23 31.6861 1526.67C29.5058 1523.1 28.1163 1519.11 27.6114 1514.96C27.1065 1510.81 27.4979 1506.6 28.7593 1502.62C29.9247 1499.15 31.4885 1495.84 33.4193 1492.74C47.2993 1469.67 61.0694 1446.53 75.3094 1423.68C90.4394 1399.39 105.999 1375.38 121.459 1351.3C144.289 1315.75 166.839 1280.04 186.149 1242.38C190.008 1235.04 191.997 1226.87 191.939 1218.59C191.819 1105 191.249 991.407 192.269 877.837C192.869 811.577 195.379 745.307 198.429 679.107C200.647 630.208 205.521 581.466 213.029 533.097V533.097Z" fill="white"/>
<path d="M2039.28 521.407L1985.85 519.407C1985.85 514.527 1983.39 512.727 1978.49 512.257C1954.63 509.957 1930.79 507.437 1906.97 504.697C1877.82 501.307 1848.97 496.487 1820.97 487.087C1774.75 471.547 1739.79 442.717 1715.29 400.507C1693.2 362.447 1678.35 321.597 1666.02 279.647C1649.41 222.69 1638.77 164.158 1634.29 104.997C1633.9 99.9968 1633.24 94.9067 1633.98 90.0567C1634.88 84.2567 1636.2 78.1367 1638.98 73.0567C1645.98 60.5267 1658.86 55.3868 1671.07 59.1168C1683.77 63.0068 1693.57 76.2668 1691.22 90.0068C1688.87 103.747 1691.14 116.537 1693.41 129.537C1704.68 194.227 1719.73 257.977 1743.17 319.477C1751.49 341.297 1761.75 362.187 1774.88 381.617C1789.14 402.717 1808.25 417.517 1831.88 426.777C1853.75 435.337 1876.53 440.237 1899.72 442.777C1945.06 447.667 1990.42 452.507 2035.88 456.077C2077.51 459.347 2118.98 458.077 2159.93 447.837C2197.75 438.387 2229.06 418.837 2254.76 389.977C2286.57 354.247 2312.91 314.767 2336.07 272.977C2368.12 215.067 2392.15 153.767 2415.22 91.9768C2421.16 76.0768 2427.06 60.1467 2433.12 44.2867C2434.48 40.5335 2436.21 36.9257 2438.29 33.5168C2446.54 20.4468 2461.16 15.5168 2474.68 20.9468C2488.2 26.3768 2495.58 40.1968 2492.85 55.0668C2492.38 57.6942 2491.66 60.2698 2490.69 62.7568C2467.69 120.957 2446.36 179.847 2421.28 237.117C2393.28 301.007 2358.11 361.047 2313.07 414.847C2293.29 438.487 2271.68 460.017 2245.49 476.567C2217.79 494.057 2187.43 504.567 2155.44 510.717C2120.75 517.482 2085.32 519.721 2050.05 517.377C2045.94 517.067 2041.26 515.677 2039.28 521.407Z" fill="#04AEFF"/>
<path d="M3.73911 214.617L4.04916 210.847C4.47916 208.077 4.89918 205.296 5.31918 202.526L5.9791 196.847L7.28915 190.406L8.13913 184.847C8.54913 183.377 8.9491 181.906 9.3591 180.436C9.5791 179.246 9.80914 178.047 10.0291 176.847C10.4391 175.367 10.8491 173.846 11.2491 172.406C11.5291 171.216 11.8092 170.037 12.0792 168.847L23.8192 138.727L23.8991 138.556L25.2691 136.556C25.6049 135.991 25.8512 135.377 25.9991 134.737L27.2691 132.556C27.6167 132.002 27.8702 131.394 28.0191 130.757L29.2291 128.546L31.7291 124.217C32.1091 123.657 32.4991 123.106 32.8791 122.556L33.9891 120.707L35.4592 118.597C40.9125 111.183 46.3592 103.777 51.7992 96.3766L53.3292 94.5765C66.2192 81.1065 78.2692 66.6865 92.1792 54.3665C119.279 30.3665 148.529 9.69654 185.679 3.85654C216.769 -1.02346 247.739 -0.313448 277.519 9.74655C321.519 24.6066 354.439 52.7466 372.519 96.3966C384.349 124.897 391.779 154.717 393.159 185.397C396.459 258.897 365.679 316.137 306.769 358.877C290.095 371.086 271.855 380.998 252.539 388.347C216.599 401.887 180.229 401.346 143.609 391.726C106.719 382.016 73.3591 365.396 44.2391 340.556L42.2391 338.687L42.1792 338.627L40.1792 336.707L38.1792 334.756L36.1792 332.756C35.5492 332.086 34.9191 331.416 34.2791 330.756L34.2291 330.687L30.5991 326.447L27.9192 323.026L26.1892 320.796L23.7591 317.117C23.2391 316.357 22.7592 315.587 22.1892 314.827C21.4492 313.567 20.7191 312.306 19.9891 311.046C19.791 310.439 19.519 309.858 19.1792 309.316L17.8591 307.316L17.7791 307.156L8.02914 282.936C7.75914 281.776 7.4991 280.607 7.2291 279.447L5.89914 274.837C5.68914 273.617 5.48914 272.396 5.27914 271.166C4.94914 267.936 4.64914 264.697 4.27914 261.467C2.88914 249.137 -0.28088 236.907 3.62912 224.397C4.56912 221.407 3.74911 217.887 3.73911 214.617ZM219.159 61.4565C198.989 61.7865 179.469 64.5165 162.289 76.5465C150.069 85.1065 137.489 93.1665 125.139 101.546C123.27 102.942 121.568 104.549 120.069 106.337C115.359 111.497 110.759 116.756 106.069 121.936C75.1292 155.936 62.7092 196.846 62.5392 241.936C62.4392 266.626 71.4292 287.296 92.1992 302.046C114.699 318.046 139.059 329.686 166.269 335.046C184.039 338.566 201.809 340.526 219.599 335.316C257.599 324.156 288.689 302.847 311.189 270.137C328.168 245.854 335.829 216.267 332.769 186.796C331.199 170.336 327.479 153.967 323.379 137.897C318.379 118.327 309.719 100.597 293.919 86.8966C272.349 68.1966 247.029 61.2865 219.159 61.4565Z" fill="white"/>
<path d="M1845.74 219.937C1848.2 162.487 1861.1 112.197 1891.14 67.0865C1892.34 65.4939 1893.35 63.7653 1894.14 61.9365C1901.43 42.0765 1918.02 34.5665 1936.61 29.5565C1944.61 27.3965 1952.72 25.3965 1960.49 22.5565C1999.99 8.09651 2038.74 11.7865 2075.91 29.3365C2130.73 55.2265 2166.91 97.5165 2181.91 156.827C2188.43 182.577 2186.4 208.397 2180.67 234.017C2173.92 264.177 2161.32 291.896 2145.39 318.276C2127.12 348.546 2100.19 367.276 2067.29 378.496C2000.04 401.426 1941.41 385.317 1890.29 338.407C1866.29 316.407 1854.41 287.537 1849.48 255.807C1847.47 242.677 1846.7 229.357 1845.74 219.937ZM1906.39 219.467C1907.19 227.227 1907.82 238.207 1909.54 249.017C1912.66 268.627 1920.61 286.097 1936.16 299.017C1977.7 333.457 2019.47 336.756 2065.04 314.226C2076.43 308.553 2086.02 299.816 2092.72 288.997C2104.78 270.087 2114.2 249.996 2120.06 228.286C2124.79 210.826 2127.99 192.967 2124.06 175.017C2113.64 127.017 2083.81 95.9366 2038.33 79.3766C2020.37 72.6742 2000.63 72.4866 1982.54 78.8465C1971.85 82.4966 1961.14 86.0965 1950.32 89.3265C1943.2 91.4565 1938.53 95.6166 1934.83 102.147C1914.75 137.577 1908.51 176.327 1906.39 219.467V219.467Z" fill="white"/>
<path d="M983.71 984.576C979.71 985.946 975.449 986.926 971.629 988.766C924.879 1011.23 877.929 1033.23 829.799 1052.58C786.239 1070.1 741.57 1084.19 695.21 1092.02C665.06 1097.12 634.569 1100.45 603.939 1098.38C567.729 1095.93 532.19 1089.61 498.01 1076.74C492.181 1074.4 486.001 1073.07 479.73 1072.8C459.16 1072.46 450.279 1050.86 451.879 1036.99C453.659 1021.52 470.549 1009.73 486.609 1013.42C496.279 1015.64 505.609 1019.48 515.039 1022.59C534.039 1028.84 553.499 1032.37 573.319 1034.98C595.269 1037.86 617.259 1037.39 639.079 1036.23C673.929 1034.38 708.14 1027.5 741.72 1017.76C783.3 1005.69 823.19 989.087 862.72 971.697C891.54 959.027 919.72 944.926 948.98 931.096C936.52 926.806 924.58 922.876 912.77 918.576C904.35 915.516 895.569 912.887 887.909 908.427C870.189 898.087 866.229 877.736 878.059 862.216C885.659 852.216 898.009 848.306 911.169 852.366C933.379 859.236 955.459 866.546 977.629 873.566C994.099 878.776 1010.68 883.646 1027.1 889.016C1036.32 892.016 1044.92 896.337 1051.71 903.687C1058 910.194 1061.68 918.791 1062.04 927.836C1062.64 940.161 1060.99 952.493 1057.17 964.226C1044.92 1001.82 1032.46 1039.34 1019.78 1076.79C1016.35 1086.93 1010.35 1096.02 1002.36 1103.16C992.759 1111.8 977.699 1113.73 967.149 1106.64C954.809 1098.35 949.289 1087.5 952.569 1073.43C953.569 1069.28 955.619 1065.37 957.369 1061.43C961.119 1052.96 965.56 1044.75 968.68 1036.05C973.73 1021.99 978.01 1007.65 982.44 993.366C983.31 990.586 983.359 987.556 983.789 984.636C984.044 984.617 984.293 984.545 984.52 984.427C984.65 984.337 984.619 984.036 984.669 983.826L983.71 984.576Z" fill="#ACACAC"/>
<path d="M2563.16 511.446C2558.61 517.056 2554.16 522.746 2549.5 528.266C2538.55 541.266 2528.2 554.756 2516.35 566.816C2497.18 586.336 2471.6 571.586 2466.55 554.396C2465.14 549.747 2464.8 544.84 2465.55 540.04C2466.3 535.241 2468.13 530.673 2470.89 526.676C2480.94 511.406 2491.06 496.136 2501.95 481.456C2515.21 463.576 2529.33 446.326 2543.03 428.756C2553.08 415.876 2566.14 406.646 2580.45 399.436C2603.05 388.056 2625.19 400.836 2627.06 425.886C2627.36 429.826 2628.37 432.886 2631.27 435.536C2649.94 452.57 2668.59 469.636 2687.22 486.736C2698.03 496.596 2709.14 506.146 2719.71 516.256C2728.57 524.736 2731.51 535.256 2728.16 547.256C2724.75 559.516 2716.09 565.746 2704.25 568.746C2690.37 572.256 2679.1 568.236 2670.92 556.836C2659.48 540.916 2643.1 530.616 2627.73 516.186C2627.47 520.626 2627.31 523.106 2627.17 525.586C2627.17 526.256 2627.17 526.916 2627.17 527.586C2626.44 576.176 2625.79 624.776 2624.95 673.366C2624.49 699.646 2623.77 725.916 2623.06 752.196C2622.44 774.796 2621.62 797.406 2620.97 820.006C2620.3 842.286 2619.71 864.566 2619.2 886.846C2618.99 896.206 2616.74 904.846 2609.38 911.006C2601.54 917.556 2592.52 920.356 2582.49 916.006C2572.46 911.656 2566.3 904.296 2565.29 893.386C2564.28 882.476 2563.63 871.506 2563.4 860.546C2562.63 823.286 2561.53 786.016 2561.63 748.746C2561.74 702.486 2562.88 656.226 2563.63 609.956C2564.15 580.016 2564.85 550.086 2565.46 520.146C2565.51 517.556 2565.46 514.956 2565.46 512.366L2563.16 511.446Z" fill="#ACACAC"/>
<path d="M23.8193 138.727L12.0793 168.837C13.2893 157.757 16.7093 147.517 23.8193 138.727Z" fill="#898E8E"/>
<path d="M8.01929 282.836L17.7693 307.056C11.3593 300.236 8.73929 291.906 8.01929 282.836Z" fill="#898E8E"/>
<path d="M7.28931 190.406L5.97925 196.846C6.41925 194.696 6.89931 192.556 7.28931 190.406Z" fill="#898E8E"/>
<path d="M9.35913 180.437C8.94913 181.907 8.54916 183.377 8.13916 184.847C8.54916 183.377 8.94913 181.907 9.35913 180.437Z" fill="#898E8E"/>
<path d="M11.2493 172.406C10.8493 173.886 10.4393 175.406 10.0293 176.846L11.2493 172.406Z" fill="#898E8E"/>
<path d="M30.5991 326.376L34.2291 330.616L30.5991 326.376Z" fill="#898E8E"/>
<path d="M5.89917 274.836L7.21912 279.336L5.89917 274.836Z" fill="#898E8E"/>
<path d="M19.9792 310.946C20.7092 312.206 21.4393 313.466 22.1793 314.726C21.4393 313.466 20.7092 312.206 19.9792 310.946Z" fill="#898E8E"/>
<path d="M17.8992 307.196L19.2191 309.196L17.8992 307.196Z" fill="#898E8E"/>
<path d="M22.1892 314.756C22.7192 315.516 23.1892 316.286 23.7592 317.046C23.2392 316.286 22.7192 315.516 22.1892 314.756Z" fill="#898E8E"/>
<path d="M26.1892 320.727L27.9192 322.957L26.1892 320.727Z" fill="#898E8E"/>
<path d="M34.2793 330.687L36.1793 332.687C35.5493 332.017 34.8993 331.347 34.2793 330.687Z" fill="#898E8E"/>
<path d="M36.2192 332.727L38.2192 334.727L36.2192 332.727Z" fill="#898E8E"/>
<path d="M38.2092 334.736L40.2092 336.687L38.2092 334.736Z" fill="#898E8E"/>
<path d="M40.2292 336.727L42.2292 338.647L40.2292 336.727Z" fill="#898E8E"/>
<path d="M42.2593 338.707L44.2593 340.576L42.2593 338.707Z" fill="#898E8E"/>
<path d="M25.2692 136.536L23.8992 138.536L25.2692 136.536Z" fill="#898E8E"/>
<path d="M27.2693 132.536L25.9993 134.716L27.2693 132.536Z" fill="#898E8E"/>
<path d="M29.2292 128.526L28.0193 130.736L29.2292 128.526Z" fill="#898E8E"/>
<path d="M32.8993 122.536C32.5193 123.086 32.1293 123.636 31.7493 124.196C32.1093 123.636 32.4993 123.086 32.8993 122.536Z" fill="#898E8E"/>
<path d="M35.4594 118.576L33.9893 120.686L35.4594 118.576Z" fill="#898E8E"/>
<path d="M53.3293 94.5566L51.7993 96.3567L53.3293 94.5566Z" fill="#898E8E"/>
</svg>
